<?xml version="1.0" encoding="UTF-8" standalone="no"?>
<svg width="12px" height="7px" viewBox="0 0 12 7" version="1.1" xmlns="http://www.w3.org/2000/svg" xmlns:xlink="http://www.w3.org/1999/xlink">
    <!-- Generator: Sketch 3.8.2 (29753) - http://www.bohemiancoding.com/sketch -->
    <title>Arrow Icon</title>
    <desc>Created with Sketch.</desc>
    <defs></defs>
    <g id="Test" stroke="none" stroke-width="1" fill="none" fill-rule="evenodd">
        <g id="Main" transform="translate(-287.000000, -155.000000)" fill="#4C9DFF">
            <g id="Card-Details" transform="translate(0.000000, 89.000000)">
                <g id="Arrow-Icon" transform="translate(287.000000, 66.000000)">
                    <path d="M3.31111111,8.35555556 C3.04444444,8.08888889 3.04444444,7.68888889 3.31111111,7.42222222 L7.51111111,3.22222222 L3.31111111,-0.977777778 C3.04444444,-1.24444444 3.04444444,-1.64444444 3.31111111,-1.91111111 C3.57777778,-2.17777778 3.97777778,-2.17777778 4.24444444,-1.91111111 L8.91111111,2.75555556 C9.17777778,3.02222222 9.17777778,3.42222222 8.91111111,3.68888889 L4.24444444,8.35555556 C4.11111111,8.48888889 3.91111111,8.55555556 3.77777778,8.55555556 C3.57777778,8.55555556 3.44444444,8.48888889 3.31111111,8.35555556 L3.31111111,8.35555556 Z" transform="translate(6.111111, 3.222222) rotate(-270.000000) translate(-6.111111, -3.222222) "></path>
                </g>
            </g>
        </g>
    </g>
</svg>